<?xml version="1.0" encoding="utf-8"?>
<!-- Generator: Adobe Illustrator 28.0.0, SVG Export Plug-In . SVG Version: 6.00 Build 0)  -->
<svg version="1.1" id="묐迹_1" xmlns="http://www.w3.org/2000/svg" xmlns:xlink="http://www.w3.org/1999/xlink" x="0px" y="0px"
	 viewBox="0 0 201 259.8" style="enable-background:new 0 0 201 259.8;" xml:space="preserve">
<style type="text/css">
	.st0{fill:#939598;}
	.st1{fill:#808285;}
	.st2{fill:#A7A9AC;}
	.st3{opacity:0.2;fill:#FFFFFF;}
	.st4{fill:#6D6E71;}
</style>
<g>
	<g>
		<path class="st0" d="M144.4,236.5H55.1c-4.9,0-8.9-3.7-9.4-8.5L28.8,57.9h141.9L153.8,228C153.4,232.8,149.3,236.5,144.4,236.5z"
			/>
		<g>
			<path class="st1" d="M167.1,94.1H32.4l-1.2-1.3c-1.8-1.8-1.9-4.7-0.4-6.7l0.7-1h136.6l0.7,0.9c1.5,2,1.4,4.9-0.4,6.8L167.1,94.1z
				"/>
			<path class="st2" d="M29.8,88.4h140c-0.1-0.8-0.4-1.7-1-2.4l-0.7-0.9H31.5l-0.7,1C30.2,86.8,29.9,87.6,29.8,88.4z"/>
		</g>
		<g>
			<path class="st1" d="M154.5,219.4H44.8l-1.2-1.3c-1.8-1.8-1.9-4.7-0.4-6.7l0.7-1h111.5l0.7,0.9c1.5,2,1.4,4.9-0.4,6.8
				L154.5,219.4z"/>
			<path class="st2" d="M42.2,213.8h115c-0.1-0.8-0.5-1.7-1-2.4l-0.7-0.9H43.9l-0.7,1C42.7,212.1,42.3,212.9,42.2,213.8z"/>
		</g>
		<g>
			<polygon class="st3" points="42.8,64.4 59.7,236.5 82.5,236.5 72.5,64.4 			"/>
		</g>
		<path class="st3" d="M36.8,38.6c2.5-1.8,6.5-2.9,9.7-2.9h105.6c3.2,0,7.2,1,9.7,2.9H36.8z"/>
	</g>
	<g>
		<g>
			<path class="st1" d="M141.4,198L141.4,198c-2-0.1-3.6-1.9-3.4-3.9l6.1-87.8c0.1-2,1.9-3.6,3.9-3.4l0,0c2,0.1,3.6,1.9,3.4,3.9
				l-6.1,87.8C145.2,196.6,143.4,198.1,141.4,198z"/>
			<path class="st4" d="M146.6,107.6c0.1-1.3,1.2-2.2,2.4-2.1l0,0c0.9,0.1,1.8,0.3,2.5,0.8c0.1-1.8-0.8-3.2-3-3.4l-0.9-0.1
				c-1.8-0.1-3.3,1.2-3.4,3l-6.2,89.4c-0.1,1.4,1,2.6,2.4,2.7l0,0L146.6,107.6z"/>
		</g>
		<g>
			<path class="st1" d="M120.6,197.3L120.6,197.3c-2-0.1-3.6-1.8-3.6-3.8l3.1-88c0.1-2,1.8-3.6,3.8-3.6l0,0c2,0.1,3.6,1.8,3.6,3.8
				l-3.1,88C124.3,195.8,122.6,197.4,120.6,197.3z"/>
			<path class="st4" d="M122.6,106.8c0-1.3,1.1-2.2,2.4-2.2l0,0c0.9,0,1.8,0.3,2.5,0.7c0.1-1.8-0.9-3.2-3.1-3.3l-0.9,0
				c-1.8-0.1-3.3,1.3-3.3,3.1l-3.1,89.5c0,1.4,1.1,2.6,2.5,2.7l0,0L122.6,106.8z"/>
		</g>
		<g>
			<path class="st1" d="M99.8,197.3L99.8,197.3c-2,0-3.7-1.7-3.7-3.7v-88c0-2,1.7-3.7,3.7-3.7l0,0c2,0,3.7,1.7,3.7,3.7v88
				C103.5,195.7,101.8,197.3,99.8,197.3z"/>
			<path class="st4" d="M98.6,106.8c0-1.3,1-2.3,2.3-2.3l0,0c0.9,0,1.8,0.2,2.5,0.6c0-1.8-1-3.2-3.2-3.2h-0.9
				c-1.8,0-3.2,1.4-3.2,3.2v89.6c0,1.4,1.1,2.6,2.6,2.6l0,0V106.8z"/>
		</g>
		<g>
			<path class="st1" d="M58.2,198L58.2,198c-2,0.1-3.8-1.4-3.9-3.4l-6.1-87.8c-0.1-2,1.4-3.8,3.4-3.9l0,0c2-0.1,3.8,1.4,3.9,3.4
				l6.1,87.8C61.7,196.1,60.2,197.8,58.2,198z"/>
			<path class="st4" d="M50.7,107.7c-0.1-1.3,0.9-2.3,2.1-2.4l0,0c0.9-0.1,1.8,0.1,2.6,0.4c-0.1-1.8-1.2-3.1-3.4-2.9l-0.9,0.1
				c-1.8,0.1-3.1,1.7-3,3.4l6.2,89.4c0.1,1.4,1.3,2.5,2.7,2.4l0,0L50.7,107.7z"/>
		</g>
		<g>
			<path class="st1" d="M79,197.3L79,197.3c-2,0.1-3.7-1.5-3.8-3.6l-3.1-88c-0.1-2,1.5-3.7,3.6-3.8l0,0c2-0.1,3.7,1.5,3.8,3.6
				l3.1,88C82.6,195.5,81,197.2,79,197.3z"/>
			<path class="st4" d="M74.7,106.8c0-1.3,0.9-2.3,2.2-2.4l0,0c0.9,0,1.8,0.2,2.6,0.5c-0.1-1.8-1.1-3.1-3.3-3.1l-0.9,0
				c-1.8,0.1-3.2,1.6-3.1,3.3l3.1,89.5c0,1.4,1.2,2.5,2.7,2.5l0,0L74.7,106.8z"/>
		</g>
	</g>
	<path class="st3" d="M24.3,53.4h151c-0.5-0.9-1.5-1.6-2.6-1.6H26.9C25.7,51.8,24.8,52.4,24.3,53.4z"/>
	<g>
		<polygon class="st1" points="29.5,64.4 170.1,64.4 170.7,57.9 28.8,57.9 		"/>
		<path class="st0" d="M152.1,35.7H46.5c-9.8,0-17.7,7.9-17.7,17.7l0,0h141l0,0C169.8,43.6,161.9,35.7,152.1,35.7z"/>
		<path class="st0" d="M172.7,57.9H26.9c-1.6,0-2.9-1.3-2.9-2.9l0,0c0-1.6,1.3-2.9,2.9-2.9h145.8c1.6,0,2.9,1.3,2.9,2.9l0,0
			C175.6,56.6,174.3,57.9,172.7,57.9z"/>
		<path class="st2" d="M31.2,44.6h136.2c-3.1-5.3-8.8-8.8-15.3-8.8H46.5C40,35.7,34.3,39.3,31.2,44.6z"/>
		<path class="st0" d="M81.4,35.7c4.8-13.7,31.9-13.7,36.7,0h5.8C121.5,25.2,110.6,20,99.8,20c-10.9,0-21.7,5.2-24.2,15.7H81.4z"/>
		<path class="st2" d="M76.6,35.7C79.1,25.6,89.8,21,99.8,21c9.9,0,20.7,4.6,23.2,14.7h2C122.9,27.1,114.8,19,99.8,19
			c-15,0-23.1,8.1-25.2,16.7H76.6z"/>
	</g>
</g>
</svg>
